<svg version="1.2" xmlns="http://www.w3.org/2000/svg" viewBox="0 0 318 428" width="318" height="428">
	<title>bebidas-icon-svg</title>
	<style>
		.s0 { fill: #ffffff } 
	</style>
	<g id="Layer">
		<path id="Layer" fill-rule="evenodd" class="s0" d="m307.5 87.8c0 17.9-7.3 33.6-18.5 45.4-0.5 0-0.5 0.5-0.5 0.5 0 0.6-0.6 0.6-0.6 0.6-11.2 10.6-25.7 17.9-42 18.5l-31.3 250.8c-0.6 5.6-5.6 10.1-11.2 10.1h-117.6c-5.6 0-10.7-4.5-11.2-10.1l-33.6-313.6c-0.6-6.1 3.9-11.7 10-12.3 2.3-0.5 4.5 0 6.2 1.1-44.8-50.9-45.9-52.6-46.5-53.2-3.3-5-1.7-12.3 3.4-15.6 5-3.4 11.7-2.3 15.1 2.8 2.8 3.9 38.6 44.2 61 69.4 0.6 0.6 1.2 1.7 1.7 2.8l48.2 108.6h77.3l11.7-92.9h-40.3c-6.2 0-11.2-5.1-11.2-11.2 0-17.9 7.3-33.6 18.5-45.4 0.5 0 0.5-0.5 0.5-0.5 0-0.6 0.6-0.6 0.6-0.6 11.8-11.2 27.4-18.5 45.4-18.5 17.9 0 33.6 7.3 45.3 18.5l0.6 0.6c11.7 11.7 19 26.3 19 44.2zm-91.8-10.1l-9.5-9.5c-1.7 2.8-2.8 6.2-4 9.5zm6.2-25.2l9.5 9.5v-13.4c-3.3 0.6-6.1 2.2-9.5 3.9zm-59.9 234.1c0 9.5 7.3 16.8 16.8 16.8 9.5 0 16.8-7.3 16.8-16.8 0-9.5-7.3-16.8-16.8-16.8-9 0-16.8 7.3-16.8 16.8zm-32.5 41.4c-4.5 0-8.4 4-8.4 8.4 0 4.5 3.9 8.4 8.4 8.4 4.5 0 8.4-3.9 8.4-8.4 0-4.4-3.9-8.4-8.4-8.4zm-23-116.4c-14 0-25.2 11.2-25.2 25.2 0 14 11.2 25.2 25.2 25.2 14 0 25.2-11.2 25.2-25.2 0-14-11.2-25.2-25.2-25.2zm-42.5-124.4l11.2 105.3h40.3l-43.7-98c-2.8-3.3-6.1-6.7-8.9-10.1 0 1.2 0.5 2.3 1.1 2.8zm199.3 38.1l-9.5-9.5v13.4c3.4-0.5 6.7-2.2 9.5-3.9zm0-72.8c-2.8-1.7-6.1-2.8-9.5-3.9v13.4zm20.2 47.6h-13.5l9 9.6c1.7-2.8 3.4-6.2 4.5-9.6zm0-22.4c-1.1-3.3-2.3-6.7-3.9-9.5l-9.6 9.5z"/>
	</g>
</svg>