<svg version="1.2" xmlns="http://www.w3.org/2000/svg" viewBox="0 0 529 518" width="529" height="518">
	<title>noun-whisky-4854137-svg</title>
	<style>
		.s0 { fill: #ffffff } 
	</style>
	<g id="Layer">
		<path id="Layer" class="s0" d="m80.2 18h52.5v15.5l-5.3 10.8-41.8-0.1-5.4-10.8z"/>
		<path id="Layer" class="s0" d="m212.1 219.3l28.7-71.7q1.5-3.5 2.5-7.1h41.3q1.1 3.6 2.5 7l28.7 71.8h-18.6c-8.3-11-21.4-17.5-35.2-17.5-13.9 0-26.9 6.5-35.2 17.5z"/>
		<path id="Layer" class="s0" d="m47.7 236.8h21.6c5.6 0.1 10.9-2.5 14.3-7 4.8-6.7 12.7-10.6 21-10.6 8.2 0.1 16 3.9 21 10.5 3.3 4.5 8.6 7.2 14.2 7h25.5l0.5 1.4c1 2.4 1.9 4.9 2.7 7.4h-124c0.8-2.5 1.7-5 2.7-7.4z"/>
		<path id="Layer" class="s0" d="m304.3 315.5q2.2-8.3 5.4-16.2l0.4-1.2h21.7c5.6 0 10.9-2.6 14.3-7 4.8-6.7 12.7-10.7 21-10.6 8.2 0 16 3.9 21 10.5 3.3 4.5 8.6 7.1 14.2 7h25.5l0.5 1.3q3.2 7.9 5.4 16.2h-31.4c-5.5-0.1-10.8 2.5-14.1 6.9-5 6.6-12.8 10.5-21.1 10.5-8.3 0-16.1-3.9-21-10.5-3.4-4.5-8.7-7.1-14.3-7z"/>
		<path id="Layer" class="s0" d="m392.1 208.8l28.7 71.8h-18.6c-8.3-11.1-21.4-17.6-35.2-17.6-13.9 0-26.9 6.5-35.2 17.6h-14.7l28.8-71.9c0.9-2.2 1.7-4.6 2.4-7h41.4c0.7 2.4 1.5 4.8 2.4 7z"/>
		<path id="Layer" class="s0" d="m205.2 236.8h21.6c5.6 0.1 10.9-2.5 14.3-7 4.8-6.7 12.7-10.6 21-10.6 8.2 0.1 16 3.9 21 10.5 3.3 4.5 8.6 7.2 14.2 7h18.5l-3.5 8.8h-110.3c0.8-2.5 1.7-5 2.7-7.4z"/>
		<path id="Layer" class="s0" d="m281.5 61.8v56.5c0 1.6 0.1 3.1 0.2 4.7h-35.4c0.1-1.6 0.2-3.2 0.2-4.7v-56.5z"/>
		<path id="Layer" class="s0" d="m124 61.8v56.5c0 1.6 0.1 3.1 0.2 4.7h-35.4c0.1-1.6 0.2-3.2 0.2-4.7v-56.5z"/>
		<path id="Layer" class="s0" d="m89 368h192.5v17.5h-192.5z"/>
		<path id="Layer" fill-rule="evenodd" class="s0" d="m281.5 490.5h-262.5v-87.5h262.5zm-227.5-35h-17.5v17.5h17.5zm0-35h-17.5v17.5h17.5z"/>
		<path id="Layer" class="s0" d="m54 368h17.5v17.5h-17.5z"/>
		<path id="Layer" class="s0" d="m54.6 219.3l28.7-71.7q1.5-3.5 2.5-7.1h41.3q1.1 3.6 2.5 7l28.7 71.8h-18.6c-8.3-11-21.4-17.5-35.2-17.5-13.9 0-26.9 6.5-35.2 17.5z"/>
		<path id="Layer" fill-rule="evenodd" class="s0" d="m281.7 350.5h-262.7v-87.5h286.3l-11.9 29.8c-7.3 18.4-11.3 37.9-11.7 57.7zm-227.7-35h-17.5v17.5h17.5zm0-35h-17.5v17.5h17.5z"/>
		<path id="Layer" fill-rule="evenodd" class="s0" d="m301.6 505.4c-1.7-1.6-2.6-3.8-2.6-6.2v-144.6q0.1-10.9 1.8-21.6l31.2-0.2c8.1 11.1 21 17.6 34.7 17.6h0.4c13.8 0.1 26.9-6.4 35.2-17.4h34.9q1.7 10.7 1.8 21.6v144.7c0 2.3-0.9 4.5-2.6 6.1-1.6 1.7-3.8 2.6-6.2 2.6h-122.5c-2.3 0-4.5-0.9-6.1-2.6zm14.9-32.4c0 4.6 1.8 9.1 5.1 12.4 3.3 3.3 7.8 5.1 12.4 5.1h70c4.6 0 9.1-1.8 12.4-5.1 3.3-3.3 5.1-7.8 5.1-12.4v-87.5c0-4.6-1.8-9.1-5.1-12.4-3.3-3.3-7.8-5.1-12.4-5.1h-70c-4.6 0-9.1 1.8-12.4 5.1-3.3 3.3-5.1 7.8-5.1 12.4z"/>
		<path id="Layer" fill-rule="evenodd" class="s0" d="m456.3 350.5c-0.4-19.8-4.4-39.3-11.7-57.7l-11.9-29.8h76.3v87.5zm17.7-52.5h17.5v-17.5h-17.5zm0 35h17.5v-17.5h-17.5z"/>
		<path id="Layer" class="s0" d="m386.5 123v56.5q0 2.4 0.3 4.7h-35.6q0.3-2.3 0.3-4.7v-56.5z"/>
		<path id="Layer" fill-rule="evenodd" class="s0" d="m509 490.5h-52.5v-87.5h52.5zm-17.5-35h-17.5v17.5h17.5zm0-35h-17.5v17.5h17.5z"/>
		<path id="Layer" class="s0" d="m456.5 368h17.5v17.5h-17.5z"/>
		<path id="Layer" class="s0" d="m237.7 18h52.5v15.5l-5.3 10.8-41.8-0.1-5.3-10.8z"/>
		<path id="Layer" class="s0" d="m342.7 79.3h52.5v15.4l-5.4 10.8h-41.6l-5.4-10.8z"/>
		<path id="Layer" class="s0" d="m334 385.5h70v87.5h-70z"/>
	</g>
</svg>