<svg version="1.2" xmlns="http://www.w3.org/2000/svg" viewBox="0 0 464 479" width="464" height="479">
	<title>noun-drink-2207031-svg</title>
	<style>
		.s0 { fill: #ffffff } 
	</style>
	<g id="Layer">
		<path id="Layer" fill-rule="evenodd" class="s0" d="m446.8 16v15.1c0 2.3-1.7 3.9-4 3.9h-82.8q-2.6 0-3.4 1.7l-27.4 39.2c-0.6 1.1 0 2.3 1.1 2.3h48.1c7.9 0 15.2 4.4 19.1 11.7 3.3 7.3 2.8 15.7-2.3 22.4l-168 220.7h-0.5v95.2c0 2.8 2.2 5 5 5h75.1c2.8 0 5 2.2 5 5v23c0 2.8-2.2 5-5 5h-193.8c-2.8 0-5-2.2-5-5v-23c0-2.8 2.2-5 5-5h75.6c2.8 0 5-2.2 5-5v-95.2h-0.5l-168-220.7c-5.6-7.3-5.6-17.9 0-25.7 3.9-5.6 11.2-8.4 17.9-8.4h254.8c0.6 0 1.1 0 1.1-0.6l44.8-63.8q1.7-1.7 3.4-1.7h95.2c2.2 0 3.9 1.7 4.5 3.9zm-97.5 95.8h-45.9c-0.6 0-0.6 0-1.1 0.5l-32.5 46.5c-0.6 0.6-1.1 1.1-1.7 1.1h-23.5c-1.7 0-2.8-2.2-1.7-3.3l29.7-42c1.1-1.2 0-2.8-1.1-2.8h-201.1c-1.6 0-2.8 2.2-1.6 3.3l137.7 180.3c1.7 2.3 5.6 2.3 7.3 0l137.8-180.8c0.5-1.2 0-2.8-2.3-2.8z"/>
		<path id="Layer" class="s0" d="m288.8 179l-76.1 99.6c-1.7 1.7-4.5 1.7-5.6 0l-76.2-99.6c-1.7-2.3 0-6.2 2.8-6.2h151.8c3.3 0.6 5 3.9 3.3 6.2z"/>
	</g>
</svg>