<svg version="1.2" xmlns="http://www.w3.org/2000/svg" viewBox="0 0 24 24" width="24" height="24">
	<title>petiscos-icon-svg</title>
	<style>
		.s0 { fill: #ffffff } 
	</style>
	<path id="Layer" class="s0" d="m19.7 6.3l2.2 1.1-1.4 15.6-3.1-3-1 1 3 3h-14.8l3-3-1-1-3.1 3-1.4-15.6 2.2-1.1v2.9c0 1.9 1.5 3.5 3.5 3.5h8.4c2 0 3.5-1.6 3.5-3.5z"/>
	<path id="Layer" class="s0" d="m5.7 0h2.1v11.3c-1.2 0-2.1-0.9-2.1-2.1z"/>
	<path id="Layer" class="s0" d="m16.2 11.3v-11.3h2.1v9.2c0 1.2-0.9 2.1-2.1 2.1z"/>
	<path id="Layer" class="s0" d="m12.7 4.2h2.1v7.1h-2.1z"/>
	<path id="Layer" class="s0" d="m9.2 2.8h2.1v8.5h-2.1z"/>
</svg>