<svg version="1.2" xmlns="http://www.w3.org/2000/svg" viewBox="0 0 32 25" width="32" height="25">
	<title>sandubas-icon-svg</title>
	<defs>
		<clipPath clipPathUnits="userSpaceOnUse" id="cp1">
			<path d="m4 0h24v24h-24z"/>
		</clipPath>
	</defs>
	<style>
		.s0 { fill: #42a7e5 } 
	</style>
	<g id="Clip-Path" clip-path="url(#cp1)">
		<g id="Layer">
			<path id="Layer" class="s0" d="m18.8 21l-3.5-2.7h7z"/>
			<path id="Layer" class="s0" d="m5 15.6q0 0-0.1 0 0.1 0 0.1 0z"/>
			<path id="Layer" class="s0" d="m4.8 11.3h22.4q0 0 0 0.1c0.5 0.7 0.4 1.7-0.1 2.4l-0.1 0.1q-0.1 0.2-0.2 0.2-0.2 0-0.3-0.1-0.1-0.1-0.1-0.2c-0.4-0.4-1-1.1-2-1.1-1 0-1.5 0.5-1.9 0.9-0.3 0.4-0.5 0.5-0.9 0.5-0.4 0-0.5-0.1-0.9-0.5-0.4-0.4-0.9-0.9-1.9-0.9-1 0-1.5 0.5-1.9 0.9-0.3 0.4-0.5 0.5-0.9 0.5-0.4 0-0.6-0.1-0.9-0.5-0.4-0.4-0.9-0.9-1.9-0.9-1 0-1.5 0.5-1.9 0.9-0.4 0.4-0.5 0.5-0.9 0.5-0.4 0-0.6-0.1-0.9-0.5-0.4-0.4-0.9-0.9-1.9-0.9-1 0-1.6 0.7-2 1.1q0 0.1 0 0.1-0.2 0.2-0.4 0.2-0.2 0-0.3-0.2h-0.1c-0.5-0.6-0.6-1.4-0.3-2.1q0.2-0.2 0.3-0.5z"/>
			<path id="Layer" class="s0" d="m27.3 18.3c0.5 0 0.8 0.5 0.7 1-0.7 1.9-2.8 3.2-5 3.2h-4.2q0.2 0 0.4-0.1l5.5-4.1z"/>
			<path id="Layer" class="s0" d="m5.8 16.9q-0.3-0.6-0.3-1.3c0.5-0.1 0.9-0.5 1.2-0.8 0.3-0.4 0.5-0.7 0.9-0.7 0.4 0 0.5 0.2 0.9 0.5 0.4 0.4 0.9 0.9 1.9 0.9 1 0 1.5-0.5 1.9-0.9 0.3-0.3 0.5-0.5 0.9-0.5 0.4 0 0.6 0.2 0.9 0.5 0.4 0.4 0.9 0.9 1.9 0.9 1 0 1.5-0.5 1.9-0.9 0.3-0.3 0.5-0.5 0.9-0.5 0.4 0 0.6 0.2 0.9 0.5 0.4 0.4 0.9 0.9 1.9 0.9 1 0 1.5-0.5 1.9-0.9 0.4-0.3 0.5-0.5 0.9-0.5 0.4 0 0.6 0.3 0.9 0.7 0.3 0.3 0.7 0.7 1.2 0.8q0 0.7-0.3 1.3z"/>
			<path id="Layer" class="s0" d="m18.4 22.4q0.2 0.1 0.4 0.1h-9.8c-2.2 0-4.3-1.3-5-3.2-0.1-0.5 0.2-1 0.7-1h8.3z"/>
			<path id="Layer" fill-rule="evenodd" class="s0" d="m4.7 9.9c-0.4 0-0.8-0.4-0.7-0.8 0.7-4.3 4.7-7.6 9.2-7.6h5.6c4.5 0 8.5 3.3 9.2 7.6 0.1 0.4-0.3 0.8-0.7 0.8zm14.8-3.5c0 0.4 0.3 0.7 0.7 0.7 0.4 0 0.7-0.3 0.7-0.7 0-0.4-0.3-0.7-0.7-0.7-0.4 0-0.7 0.3-0.7 0.7zm-2.8-1.4c0 0.4 0.3 0.7 0.7 0.7 0.4 0 0.7-0.3 0.7-0.7 0-0.4-0.3-0.7-0.7-0.7-0.4 0-0.7 0.3-0.7 0.7zm-1.4 2.8c0 0.4 0.3 0.7 0.7 0.7 0.4 0 0.7-0.3 0.7-0.7 0-0.4-0.3-0.7-0.7-0.7-0.4 0-0.7 0.3-0.7 0.7zm-2.8-2.8c0 0.4 0.3 0.7 0.7 0.7 0.4 0 0.7-0.3 0.7-0.7 0-0.4-0.3-0.7-0.7-0.7-0.4 0-0.7 0.3-0.7 0.7zm-2.8 1.4c0 0.4 0.3 0.7 0.7 0.7 0.3 0 0.7-0.3 0.7-0.7 0-0.4-0.4-0.7-0.7-0.7-0.4 0-0.7 0.3-0.7 0.7z"/>
		</g>
	</g>
</svg>