<svg width="24" height="24" viewBox="0 0 24 24" fill="none" xmlns="http://www.w3.org/2000/svg">
<path d="M18.7621 9.46073C18.6935 9.11906 18.3934 8.8732 18.0449 8.8732H1.04517C0.696656 8.8732 0.396563 9.11906 0.327984 9.46073C0.110344 10.545 0 11.6676 0 12.7973C0 14.8466 0.349875 16.8033 1.03997 18.6132C1.7047 20.3566 2.67727 21.8953 3.85252 23.0629C3.98953 23.1991 4.17492 23.2755 4.36805 23.2755H14.7219C14.9152 23.2755 15.1005 23.1991 15.2376 23.0629C16.4129 21.8953 17.3854 20.3566 18.0501 18.6131C18.7401 16.8033 19.09 14.8465 19.09 12.7973C19.0901 11.6677 18.9797 10.5451 18.7621 9.46073Z" fill="white"/>
<path d="M6.70003 3.17564C6.70003 3.02091 6.7305 2.98046 6.89226 2.79146C7.10883 2.53852 7.43606 2.15621 7.43606 1.45599C7.43606 1.05202 7.10855 0.724503 6.70458 0.724503C6.30061 0.724503 5.97309 1.05202 5.97309 1.45599C5.97309 1.61067 5.94262 1.65113 5.78086 1.84013C5.56429 2.09311 5.23706 2.47542 5.23706 3.17564C5.23706 3.87591 5.56425 4.25822 5.78076 4.51121C5.94253 4.70021 5.973 4.74075 5.973 4.89553C5.973 5.05032 5.94253 5.09082 5.78072 5.27986C5.69878 5.37563 5.59678 5.49483 5.50528 5.64253C5.29256 5.98599 5.39859 6.43683 5.74205 6.64955C5.862 6.7238 5.99503 6.75924 6.12647 6.75924C6.37134 6.75924 6.61064 6.63628 6.74911 6.41283C6.7814 6.36071 6.83273 6.30066 6.89222 6.23119C7.10873 5.97821 7.43597 5.59589 7.43597 4.89563C7.43597 4.19536 7.10873 3.81305 6.89222 3.56006C6.7305 3.37092 6.70003 3.33042 6.70003 3.17564Z" fill="white"/>
<path d="M9.90853 3.17564C9.90853 3.02091 9.93899 2.98046 10.1008 2.79146C10.3173 2.53852 10.6446 2.15621 10.6446 1.45599C10.6446 1.05202 10.317 0.724503 9.91307 0.724503C9.5091 0.724503 9.18159 1.05202 9.18159 1.45599C9.18159 1.61067 9.15112 1.65113 8.98935 1.84013C8.77279 2.09311 8.44556 2.47542 8.44556 3.17564C8.44556 3.87591 8.77279 4.25822 8.98931 4.51121C9.15107 4.70021 9.18154 4.74075 9.18154 4.89553C9.18154 5.05032 9.15107 5.09082 8.98926 5.27986C8.90732 5.37563 8.80532 5.49483 8.71382 5.64253C8.5011 5.98599 8.60713 6.43683 8.95059 6.64955C9.07054 6.7238 9.20357 6.75924 9.33501 6.75924C9.57988 6.75924 9.81913 6.63628 9.95765 6.41283C9.98995 6.36071 10.0413 6.30066 10.1008 6.23119C10.3173 5.97821 10.6445 5.59589 10.6445 4.89563C10.6445 4.19536 10.3173 3.81305 10.1008 3.56006C9.93899 3.37092 9.90853 3.33042 9.90853 3.17564Z" fill="white"/>
<path d="M13.117 3.17564C13.117 3.02091 13.1475 2.98046 13.3093 2.79146C13.5258 2.53852 13.8531 2.15621 13.8531 1.45599C13.8531 1.05202 13.5255 0.724503 13.1216 0.724503C12.7176 0.724503 12.3901 1.05202 12.3901 1.45599C12.3901 1.61067 12.3596 1.65113 12.1979 1.84013C11.9813 2.09311 11.6541 2.47542 11.6541 3.17564C11.6541 3.87591 11.9813 4.25822 12.1978 4.51121C12.3595 4.70021 12.39 4.74075 12.39 4.89553C12.39 5.05032 12.3596 5.09082 12.1978 5.27986C12.1158 5.37563 12.0138 5.49483 11.9223 5.64258C11.7096 5.98603 11.8157 6.43688 12.1591 6.64955C12.279 6.7238 12.4121 6.75924 12.5435 6.75924C12.7884 6.75924 13.0277 6.63624 13.1661 6.41278C13.1985 6.36071 13.2498 6.30066 13.3092 6.23119C13.5257 5.97821 13.8529 5.59585 13.8529 4.89563C13.8529 4.19536 13.5257 3.81305 13.3092 3.56006C13.1475 3.37092 13.117 3.33042 13.117 3.17564Z" fill="white"/>
<path d="M22.4694 10.7257C21.8535 10.4296 21.1429 10.3487 20.4072 10.4689C20.4683 10.9536 20.5102 11.4429 20.5329 11.9347C21.0723 11.8289 21.5262 11.8956 21.8356 12.0442C22.2945 12.2648 22.5371 12.6739 22.5371 13.227C22.5371 14.4714 21.6479 16.467 19.8745 17.755C19.7412 18.2223 19.5893 18.6826 19.4171 19.1344C19.3249 19.376 19.2274 19.6142 19.1245 19.8486C20.5581 19.2554 21.5662 18.3329 22.2233 17.5411C23.3192 16.2207 24 14.5676 24 13.2269C24 12.1215 23.4278 11.1864 22.4694 10.7257Z" fill="white"/>
</svg>
