<svg version="1.2" xmlns="http://www.w3.org/2000/svg" viewBox="0 0 516 511" width="516" height="511">
	<title>sobremesas-icon-svg</title>
	<style>
		.s0 { fill: #ffffff } 
	</style>
	<g id="Layer">
		<path id="Layer" class="s0" d="m161.3 61.1c-0.8 2.3-2.5 4.1-4.7 5.1-2.2 1-4.7 1-7 0.1-2.2-0.9-3.9-2.7-4.8-5-7.6-14.2-20.3-25-35.6-30.3-4.4-1.7-6.7-6.6-5.1-11 1.5-4.5 6.3-6.9 10.8-5.6 19.8 6.9 36.3 21.1 45.8 39.8 1.2 2.1 1.4 4.6 0.6 6.9z"/>
		<path id="Layer" class="s0" d="m237.9 120.8l-37.7 29.3c4.1-20.1 11.7-42.3 21.6-50 12.1-9.4 44.4-9.8 66.9-7.6-3.5 22.3-11.9 53.5-23.9 62.9-6.9 4.3-14.7 6.8-22.8 7.3h-29.6l36.2-28c3.8-3 4.5-8.5 1.6-12.3-3-3.8-8.5-4.5-12.3-1.6z"/>
		<path id="Layer" class="s0" d="m82.7 345.6c-4.8-1-9.8-0.7-14.5 0.9v-48.9l2.7-2.6c3.4-3.4 8.8-3.4 12.2 0l10.3 10.4c5 4.7 11.7 7.4 18.6 7.4 6.9 0 13.5-2.7 18.5-7.4l10.4-10.4c3.4-3.4 8.8-3.4 12.2 0l10.3 10.4c5 4.7 11.7 7.4 18.6 7.4 6.9 0 13.5-2.7 18.5-7.4l10.4-10.4c3.4-3.4 8.8-3.4 12.2 0l10.3 10.4c5 4.7 11.7 7.4 18.6 7.4 6.9 0 13.5-2.7 18.5-7.4l10.4-10.4c3.4-3.4 8.8-3.4 12.2 0l10.3 10.4c5 4.7 11.7 7.4 18.6 7.4 6.9 0 13.5-2.7 18.5-7.4l10.4-10.4c3.4-3.4 8.8-3.4 12.2 0l2.6 2.6v48.9c-4.6-1.5-9.5-1.8-14.3-0.7-4.7 1.1-9.1 3.4-12.6 6.8l-10.4 10.4c-3.4 3.4-8.9 3.4-12.3 0l-10.4-10.4c-4.9-4.9-11.5-7.6-18.5-7.6-6.9 0-13.6 2.7-18.5 7.6l-10.4 10.4c-3.4 3.4-8.8 3.4-12.2 0l-10.5-10.4c-4.9-4.7-11.6-7.4-18.5-7.4-6.9 0-13.5 2.7-18.5 7.4l-10.4 10.4c-3.4 3.4-8.8 3.4-12.2 0l-10.5-10.4c-4.9-4.7-11.6-7.4-18.5-7.4-6.9 0-13.5 2.7-18.5 7.4l-10.4 10.4c-3.4 3.4-8.8 3.4-12.2 0l-10.4-10.4c-3.5-3.5-8-5.9-12.8-7z"/>
		<path id="Layer" fill-rule="evenodd" class="s0" d="m82.7 275.7c-4.8-1-9.8-0.8-14.5 0.8v-35h297.5v35c-4.6-1.5-9.5-1.8-14.3-0.7-4.7 1.1-9.1 3.4-12.6 6.8l-10.4 10.4c-3.4 3.4-8.9 3.4-12.3 0l-10.4-10.4c-5-4.7-11.6-7.4-18.5-7.4-6.9 0-13.5 2.7-18.5 7.4l-10.4 10.4c-3.4 3.4-8.8 3.4-12.2 0l-10.5-10.4c-4.9-4.7-11.6-7.4-18.5-7.4-6.9 0-13.5 2.7-18.5 7.4l-10.4 10.4c-3.4 3.4-8.8 3.4-12.2 0l-10.5-10.4c-4.9-4.7-11.6-7.4-18.5-7.4-6.9 0-13.5 2.7-18.5 7.4l-10.4 10.4c-3.4 3.4-8.8 3.4-12.2 0l-10.4-10.4c-3.6-3.4-8-5.8-12.8-6.9zm230.6-8h17.5v-17.5h-17.5zm-70 8.8h17.5v-17.5h-17.5zm-70-8.8h17.5v-17.5h-17.5zm-70 8.8h17.5v-17.5h-17.5z"/>
		<path id="Layer" class="s0" d="m120.4 142.6c-7.7-12.1-9-27.3-3.4-40.5 5.5-13.3 17.2-22.9 31.3-25.9 0.4 5 0 10-1.1 14.8-0.5 2.3-0.2 4.6 1.1 6.6 1.2 2 3.2 3.4 5.4 3.9h2c4.2 0.1 7.8-2.7 8.8-6.7 1.4-6.1 1.9-12.3 1.6-18.5 14.3 3.4 26 13.8 31 27.6-7.5 15.9-12.8 32.8-15.5 50.1-7.5 5.6-16.5 8.7-25.9 8.8-14.3-0.6-27.5-8.1-35.3-20.2z"/>
		<path id="Layer" class="s0" d="m378.1 229.1c-3.3-3.3-7.7-5.1-12.3-5.1h-297.5v-43.7h125.8q13.1 1.3 26.2 1.4 11.5 0 23-1.4h78.7c4.2 0 8.3-1.5 11.5-4.2 3.2-2.7 5.4-6.6 6-10.7 1.5-10.8 7-20.6 15.3-27.5 8.3-7 18.9-10.6 29.8-10.1 11.6 0.7 22.5 5.9 30.4 14.4 7.9 8.6 12.2 19.8 12 31.5v242.8h-43.8v-175c0.1-4.6-1.8-9.1-5.1-12.4z"/>
		<path id="Layer" class="s0" d="m117.4 469h269.2l-8.8 17.5h-251.6z"/>
		<path id="Layer" fill-rule="evenodd" class="s0" d="m365.8 416.5h-297.6l0.1-48.9 2.6-2.6c3.4-3.4 8.8-3.4 12.2 0l10.3 10.4c5 4.7 11.7 7.4 18.6 7.4 6.9 0 13.5-2.7 18.5-7.4l10.4-10.4c3.4-3.4 8.8-3.4 12.2 0l10.3 10.4c5 4.7 11.7 7.4 18.6 7.4 6.9 0 13.5-2.7 18.5-7.4l10.4-10.4c3.4-3.4 8.8-3.4 12.2 0l10.3 10.4c5 4.7 11.7 7.4 18.6 7.4 6.9 0 13.5-2.7 18.5-7.4l10.4-10.4c3.4-3.4 8.8-3.4 12.2 0l10.3 10.4c5 4.7 11.7 7.4 18.6 7.4 6.9 0 13.5-2.7 18.5-7.4l10.4-10.4c3.4-3.4 8.8-3.4 12.2 0l2.7 2.6zm-271.3-26.3h-17.5v17.5h17.5zm61.3-8.7h-17.5v17.5h17.5zm70 8.7h-17.5v17.5h17.5zm70-8.7h-17.5v17.5h17.5zm61.2 8.7h-17.5v17.5h17.5z"/>
		<path id="Layer" class="s0" d="m497 442.8c0 4.8-3.9 8.7-8.8 8.7h-472.4c-4.9 0-8.8-3.9-8.8-8.8 0-4.8 3.9-8.7 8.7-8.7h472.5c4.9 0 8.8 3.9 8.8 8.7z"/>
	</g>
</svg>