<svg version="1.2" xmlns="http://www.w3.org/2000/svg" viewBox="0 0 362 499" width="362" height="499">
	<title>noun-soda-1368961-svg</title>
	<style>
		.s0 { fill: #ffffff } 
	</style>
	<g id="Layer">
		<path id="Layer" fill-rule="evenodd" class="s0" d="m344.6 24.2c-1.5 2.6-4.9 3.5-7.6 2-2.7-1.5-3.6-4.9-2.1-7.6 1.6-2.7 5-3.6 7.7-2 2.7 1.5 3.6 4.9 2 7.6zm-16.8 28.9c-6.2 10.7-19.9 14.3-30.6 8.2-10.8-6.2-14.4-19.8-8.2-30.5 6.1-10.6 19.9-14.3 30.6-8.1 10.7 6.1 14.4 19.8 8.2 30.4zm-26.3-21.5c-1.6 2.6-0.7 6 2 7.6 2.7 1.5 6.1 0.6 7.7-2.1 1.5-2.6 0.6-6-2.1-7.6-2.6-1.5-6.1-0.6-7.6 2.1zm-31.8 33.2l48.6 27.9c7.3 4.1 8.1 9.1 5.9 12.8-1.5 2.6-6.3 3.5-9.4 4.3-0.2 4.1 2.1 7.5-0.7 12.2-2.7 4.8-7.6 2.1-10.4 6.9-0.1 0.1-0.2 0.2-0.2 0.3l-58.3-33.4c0.1-0.1 0.1-0.2 0.2-0.3 2.8-4.8-2-7.7 0.7-12.4 2.8-4.8 6.9-4.5 10.4-6.8-0.8-3.1-1.8-7.3-0.2-10 1.8-3.2 5.7-5 11.1-2.8 0.8 0.3 1.5 0.8 2.3 1.3zm28.6 74.3c-19.1 39.4-31.8 100.2-43.3 140.4-1.4 2.3-2.4 4.1-3.7 6.3l-116.6-66.8c1.4-2.4 2.2-3.8 3.7-6.4 29.3-29.9 76.2-71.2 100.9-107.3zm-56.1 6.4c-1.6 2.6-0.7 6 2 7.6 2.7 1.5 6.1 0.6 7.7-2.1 1.5-2.6 0.6-6-2.1-7.6-2.7-1.5-6.1-0.6-7.6 2.1zm-9.2 26.9c-3.1 5.3-1.3 12.1 4.1 15.2 5.4 3.1 12.2 1.2 15.3-4.1 3.1-5.3 1.3-12.1-4.1-15.2-5.3-3.1-12.2-1.2-15.3 4.1zm12.5 122.9c-20.7 34.5-33.3 51.6-50 74.3l-108-61.9c11.2-25.6 21.9-45.2 41.6-79.1zm-56.7 83.2c-6.9 9.5-14.6 20.1-24.1 33.7-5.5 9.6-2.1 37.2-13.3 56.3-8.3 14.3-23.5 18.3-36 17.5-12.5-0.8-80.5-39.8-87.5-50.1-6.9-10.4-11.1-25.5-2.8-39.8 11.2-19.1 36.9-30 42.5-39.6 6.1-15.5 11-27.7 15.5-38.5z"/>
	</g>
</svg>